<svg width="256" height="59" viewBox="0 0 256 59" fill="none" xmlns="http://www.w3.org/2000/svg">
<g clip-path="url(#clip0_1796_14)">
<path d="M47.638 43.206V55.752H46V43.206H47.638ZM55.2357 45.708C56.4357 45.708 57.4077 46.074 58.1517 46.806C58.8957 47.526 59.2677 48.57 59.2677 49.938V55.752H57.6477V50.172C57.6477 49.188 57.4017 48.438 56.9097 47.922C56.4177 47.394 55.7457 47.13 54.8937 47.13C54.0297 47.13 53.3397 47.4 52.8237 47.94C52.3197 48.48 52.0677 49.266 52.0677 50.298V55.752H50.4297V45.888H52.0677V47.292C52.3917 46.788 52.8297 46.398 53.3817 46.122C53.9457 45.846 54.5637 45.708 55.2357 45.708ZM66.7494 45.708C67.9494 45.708 68.9214 46.074 69.6654 46.806C70.4094 47.526 70.7814 48.57 70.7814 49.938V55.752H69.1614V50.172C69.1614 49.188 68.9154 48.438 68.4234 47.922C67.9314 47.394 67.2594 47.13 66.4074 47.13C65.5434 47.13 64.8534 47.4 64.3374 47.94C63.8334 48.48 63.5814 49.266 63.5814 50.298V55.752H61.9434V45.888H63.5814V47.292C63.9054 46.788 64.3434 46.398 64.8954 46.122C65.4594 45.846 66.0774 45.708 66.7494 45.708ZM77.759 55.914C76.835 55.914 75.995 55.704 75.239 55.284C74.495 54.864 73.907 54.27 73.475 53.502C73.055 52.722 72.845 51.822 72.845 50.802C72.845 49.794 73.061 48.906 73.493 48.138C73.937 47.358 74.537 46.764 75.293 46.356C76.049 45.936 76.895 45.726 77.831 45.726C78.767 45.726 79.613 45.936 80.369 46.356C81.125 46.764 81.719 47.352 82.151 48.12C82.595 48.888 82.817 49.782 82.817 50.802C82.817 51.822 82.589 52.722 82.133 53.502C81.689 54.27 81.083 54.864 80.315 55.284C79.547 55.704 78.695 55.914 77.759 55.914ZM77.759 54.474C78.347 54.474 78.899 54.336 79.415 54.06C79.931 53.784 80.345 53.37 80.657 52.818C80.981 52.266 81.143 51.594 81.143 50.802C81.143 50.01 80.987 49.338 80.675 48.786C80.363 48.234 79.955 47.826 79.451 47.562C78.947 47.286 78.401 47.148 77.813 47.148C77.213 47.148 76.661 47.286 76.157 47.562C75.665 47.826 75.269 48.234 74.969 48.786C74.669 49.338 74.519 50.01 74.519 50.802C74.519 51.606 74.663 52.284 74.951 52.836C75.251 53.388 75.647 53.802 76.139 54.078C76.631 54.342 77.171 54.474 77.759 54.474ZM88.6427 54.24L91.7027 45.888H93.4487L89.5787 55.752H87.6707L83.8007 45.888H85.5647L88.6427 54.24ZM94.4485 50.784C94.4485 49.776 94.6525 48.894 95.0605 48.138C95.4685 47.37 96.0265 46.776 96.7345 46.356C97.4545 45.936 98.2525 45.726 99.1285 45.726C99.9925 45.726 100.742 45.912 101.378 46.284C102.014 46.656 102.488 47.124 102.8 47.688V45.888H104.456V55.752H102.8V53.916C102.476 54.492 101.99 54.972 101.342 55.356C100.706 55.728 99.9625 55.914 99.1105 55.914C98.2345 55.914 97.4425 55.698 96.7345 55.266C96.0265 54.834 95.4685 54.228 95.0605 53.448C94.6525 52.668 94.4485 51.78 94.4485 50.784ZM102.8 50.802C102.8 50.058 102.65 49.41 102.35 48.858C102.05 48.306 101.642 47.886 101.126 47.598C100.622 47.298 100.064 47.148 99.4525 47.148C98.8405 47.148 98.2825 47.292 97.7785 47.58C97.2745 47.868 96.8725 48.288 96.5725 48.84C96.2725 49.392 96.1225 50.04 96.1225 50.784C96.1225 51.54 96.2725 52.2 96.5725 52.764C96.8725 53.316 97.2745 53.742 97.7785 54.042C98.2825 54.33 98.8405 54.474 99.4525 54.474C100.064 54.474 100.622 54.33 101.126 54.042C101.642 53.742 102.05 53.316 102.35 52.764C102.65 52.2 102.8 51.546 102.8 50.802ZM109.223 47.238V53.052C109.223 53.532 109.325 53.874 109.529 54.078C109.733 54.27 110.087 54.366 110.591 54.366H111.797V55.752H110.321C109.409 55.752 108.725 55.542 108.269 55.122C107.813 54.702 107.585 54.012 107.585 53.052V47.238H106.307V45.888H107.585V43.404H109.223V45.888H111.797V47.238H109.223ZM114.627 44.286C114.315 44.286 114.051 44.178 113.835 43.962C113.619 43.746 113.511 43.482 113.511 43.17C113.511 42.858 113.619 42.594 113.835 42.378C114.051 42.162 114.315 42.054 114.627 42.054C114.927 42.054 115.179 42.162 115.383 42.378C115.599 42.594 115.707 42.858 115.707 43.17C115.707 43.482 115.599 43.746 115.383 43.962C115.179 44.178 114.927 44.286 114.627 44.286ZM115.419 45.888V55.752H113.781V45.888H115.419ZM122.513 55.914C121.589 55.914 120.749 55.704 119.993 55.284C119.249 54.864 118.661 54.27 118.229 53.502C117.809 52.722 117.599 51.822 117.599 50.802C117.599 49.794 117.815 48.906 118.247 48.138C118.691 47.358 119.291 46.764 120.047 46.356C120.803 45.936 121.649 45.726 122.585 45.726C123.521 45.726 124.367 45.936 125.123 46.356C125.879 46.764 126.473 47.352 126.905 48.12C127.349 48.888 127.571 49.782 127.571 50.802C127.571 51.822 127.343 52.722 126.887 53.502C126.443 54.27 125.837 54.864 125.069 55.284C124.301 55.704 123.449 55.914 122.513 55.914ZM122.513 54.474C123.101 54.474 123.653 54.336 124.169 54.06C124.685 53.784 125.099 53.37 125.411 52.818C125.735 52.266 125.897 51.594 125.897 50.802C125.897 50.01 125.741 49.338 125.429 48.786C125.117 48.234 124.709 47.826 124.205 47.562C123.701 47.286 123.155 47.148 122.567 47.148C121.967 47.148 121.415 47.286 120.911 47.562C120.419 47.826 120.023 48.234 119.723 48.786C119.423 49.338 119.273 50.01 119.273 50.802C119.273 51.606 119.417 52.284 119.705 52.836C120.005 53.388 120.401 53.802 120.893 54.078C121.385 54.342 121.925 54.474 122.513 54.474ZM134.531 45.708C135.731 45.708 136.703 46.074 137.447 46.806C138.191 47.526 138.563 48.57 138.563 49.938V55.752H136.943V50.172C136.943 49.188 136.697 48.438 136.205 47.922C135.713 47.394 135.041 47.13 134.189 47.13C133.325 47.13 132.635 47.4 132.119 47.94C131.615 48.48 131.363 49.266 131.363 50.298V55.752H129.725V45.888H131.363V47.292C131.687 46.788 132.125 46.398 132.677 46.122C133.241 45.846 133.859 45.708 134.531 45.708ZM150.051 47.238H147.981V55.752H146.343V47.238H145.065V45.888H146.343V45.186C146.343 44.082 146.625 43.278 147.189 42.774C147.765 42.258 148.683 42 149.943 42V43.368C149.223 43.368 148.713 43.512 148.413 43.8C148.125 44.076 147.981 44.538 147.981 45.186V45.888H150.051V47.238ZM156.263 55.914C155.339 55.914 154.499 55.704 153.743 55.284C152.999 54.864 152.411 54.27 151.979 53.502C151.559 52.722 151.349 51.822 151.349 50.802C151.349 49.794 151.565 48.906 151.997 48.138C152.441 47.358 153.041 46.764 153.797 46.356C154.553 45.936 155.399 45.726 156.335 45.726C157.271 45.726 158.117 45.936 158.873 46.356C159.629 46.764 160.223 47.352 160.655 48.12C161.099 48.888 161.321 49.782 161.321 50.802C161.321 51.822 161.093 52.722 160.637 53.502C160.193 54.27 159.587 54.864 158.819 55.284C158.051 55.704 157.199 55.914 156.263 55.914ZM156.263 54.474C156.851 54.474 157.403 54.336 157.919 54.06C158.435 53.784 158.849 53.37 159.161 52.818C159.485 52.266 159.647 51.594 159.647 50.802C159.647 50.01 159.491 49.338 159.179 48.786C158.867 48.234 158.459 47.826 157.955 47.562C157.451 47.286 156.905 47.148 156.317 47.148C155.717 47.148 155.165 47.286 154.661 47.562C154.169 47.826 153.773 48.234 153.473 48.786C153.173 49.338 153.023 50.01 153.023 50.802C153.023 51.606 153.167 52.284 153.455 52.836C153.755 53.388 154.151 53.802 154.643 54.078C155.135 54.342 155.675 54.474 156.263 54.474ZM165.113 47.49C165.401 46.926 165.809 46.488 166.337 46.176C166.877 45.864 167.531 45.708 168.299 45.708V47.4H167.867C166.031 47.4 165.113 48.396 165.113 50.388V55.752H163.475V45.888H165.113V47.49ZM176.626 47.724C176.962 47.136 177.454 46.656 178.102 46.284C178.75 45.912 179.488 45.726 180.316 45.726C181.204 45.726 182.002 45.936 182.71 46.356C183.418 46.776 183.976 47.37 184.384 48.138C184.792 48.894 184.996 49.776 184.996 50.784C184.996 51.78 184.792 52.668 184.384 53.448C183.976 54.228 183.412 54.834 182.692 55.266C181.984 55.698 181.192 55.914 180.316 55.914C179.464 55.914 178.714 55.728 178.066 55.356C177.43 54.984 176.95 54.51 176.626 53.934V55.752H174.988V42.432H176.626V47.724ZM183.322 50.784C183.322 50.04 183.172 49.392 182.872 48.84C182.572 48.288 182.164 47.868 181.648 47.58C181.144 47.292 180.586 47.148 179.974 47.148C179.374 47.148 178.816 47.298 178.3 47.598C177.796 47.886 177.388 48.312 177.076 48.876C176.776 49.428 176.626 50.07 176.626 50.802C176.626 51.546 176.776 52.2 177.076 52.764C177.388 53.316 177.796 53.742 178.3 54.042C178.816 54.33 179.374 54.474 179.974 54.474C180.586 54.474 181.144 54.33 181.648 54.042C182.164 53.742 182.572 53.316 182.872 52.764C183.172 52.2 183.322 51.54 183.322 50.784ZM195.9 45.888V55.752H194.262V54.294C193.95 54.798 193.512 55.194 192.948 55.482C192.396 55.758 191.784 55.896 191.112 55.896C190.344 55.896 189.654 55.74 189.042 55.428C188.43 55.104 187.944 54.624 187.584 53.988C187.236 53.352 187.062 52.578 187.062 51.666V45.888H188.682V51.45C188.682 52.422 188.928 53.172 189.42 53.7C189.912 54.216 190.584 54.474 191.436 54.474C192.312 54.474 193.002 54.204 193.506 53.664C194.01 53.124 194.262 52.338 194.262 51.306V45.888H195.9ZM202.158 55.914C201.402 55.914 200.724 55.788 200.124 55.536C199.524 55.272 199.05 54.912 198.702 54.456C198.354 53.988 198.162 53.454 198.126 52.854H199.818C199.866 53.346 200.094 53.748 200.502 54.06C200.922 54.372 201.468 54.528 202.14 54.528C202.764 54.528 203.256 54.39 203.616 54.114C203.976 53.838 204.156 53.49 204.156 53.07C204.156 52.638 203.964 52.32 203.58 52.116C203.196 51.9 202.602 51.69 201.798 51.486C201.066 51.294 200.466 51.102 199.998 50.91C199.542 50.706 199.146 50.412 198.81 50.028C198.486 49.632 198.324 49.116 198.324 48.48C198.324 47.976 198.474 47.514 198.774 47.094C199.074 46.674 199.5 46.344 200.052 46.104C200.604 45.852 201.234 45.726 201.942 45.726C203.034 45.726 203.916 46.002 204.588 46.554C205.26 47.106 205.62 47.862 205.668 48.822H204.03C203.994 48.306 203.784 47.892 203.4 47.58C203.028 47.268 202.524 47.112 201.888 47.112C201.3 47.112 200.832 47.238 200.484 47.49C200.136 47.742 199.962 48.072 199.962 48.48C199.962 48.804 200.064 49.074 200.268 49.29C200.484 49.494 200.748 49.662 201.06 49.794C201.384 49.914 201.828 50.052 202.392 50.208C203.1 50.4 203.676 50.592 204.12 50.784C204.564 50.964 204.942 51.24 205.254 51.612C205.578 51.984 205.746 52.47 205.758 53.07C205.758 53.61 205.608 54.096 205.308 54.528C205.008 54.96 204.582 55.302 204.03 55.554C203.49 55.794 202.866 55.914 202.158 55.914ZM208.916 44.286C208.604 44.286 208.34 44.178 208.124 43.962C207.908 43.746 207.8 43.482 207.8 43.17C207.8 42.858 207.908 42.594 208.124 42.378C208.34 42.162 208.604 42.054 208.916 42.054C209.216 42.054 209.468 42.162 209.672 42.378C209.888 42.594 209.996 42.858 209.996 43.17C209.996 43.482 209.888 43.746 209.672 43.962C209.468 44.178 209.216 44.286 208.916 44.286ZM209.708 45.888V55.752H208.07V45.888H209.708ZM217.306 45.708C218.506 45.708 219.478 46.074 220.222 46.806C220.966 47.526 221.338 48.57 221.338 49.938V55.752H219.718V50.172C219.718 49.188 219.472 48.438 218.98 47.922C218.488 47.394 217.816 47.13 216.964 47.13C216.1 47.13 215.41 47.4 214.894 47.94C214.39 48.48 214.138 49.266 214.138 50.298V55.752H212.5V45.888H214.138V47.292C214.462 46.788 214.9 46.398 215.452 46.122C216.016 45.846 216.634 45.708 217.306 45.708ZM233.014 50.442C233.014 50.754 232.996 51.084 232.96 51.432H225.076C225.136 52.404 225.466 53.166 226.066 53.718C226.678 54.258 227.416 54.528 228.28 54.528C228.988 54.528 229.576 54.366 230.044 54.042C230.524 53.706 230.86 53.262 231.052 52.71H232.816C232.552 53.658 232.024 54.432 231.232 55.032C230.44 55.62 229.456 55.914 228.28 55.914C227.344 55.914 226.504 55.704 225.76 55.284C225.028 54.864 224.452 54.27 224.032 53.502C223.612 52.722 223.402 51.822 223.402 50.802C223.402 49.782 223.606 48.888 224.014 48.12C224.422 47.352 224.992 46.764 225.724 46.356C226.468 45.936 227.32 45.726 228.28 45.726C229.216 45.726 230.044 45.93 230.764 46.338C231.484 46.746 232.036 47.31 232.42 48.03C232.816 48.738 233.014 49.542 233.014 50.442ZM231.322 50.1C231.322 49.476 231.184 48.942 230.908 48.498C230.632 48.042 230.254 47.7 229.774 47.472C229.306 47.232 228.784 47.112 228.208 47.112C227.38 47.112 226.672 47.376 226.084 47.904C225.508 48.432 225.178 49.164 225.094 50.1H231.322ZM238.668 55.914C237.912 55.914 237.234 55.788 236.634 55.536C236.034 55.272 235.56 54.912 235.212 54.456C234.864 53.988 234.672 53.454 234.636 52.854H236.328C236.376 53.346 236.604 53.748 237.012 54.06C237.432 54.372 237.978 54.528 238.65 54.528C239.274 54.528 239.766 54.39 240.126 54.114C240.486 53.838 240.666 53.49 240.666 53.07C240.666 52.638 240.474 52.32 240.09 52.116C239.706 51.9 239.112 51.69 238.308 51.486C237.576 51.294 236.976 51.102 236.508 50.91C236.052 50.706 235.656 50.412 235.32 50.028C234.996 49.632 234.834 49.116 234.834 48.48C234.834 47.976 234.984 47.514 235.284 47.094C235.584 46.674 236.01 46.344 236.562 46.104C237.114 45.852 237.744 45.726 238.452 45.726C239.544 45.726 240.426 46.002 241.098 46.554C241.77 47.106 242.13 47.862 242.178 48.822H240.54C240.504 48.306 240.294 47.892 239.91 47.58C239.538 47.268 239.034 47.112 238.398 47.112C237.81 47.112 237.342 47.238 236.994 47.49C236.646 47.742 236.472 48.072 236.472 48.48C236.472 48.804 236.574 49.074 236.778 49.29C236.994 49.494 237.258 49.662 237.57 49.794C237.894 49.914 238.338 50.052 238.902 50.208C239.61 50.4 240.186 50.592 240.63 50.784C241.074 50.964 241.452 51.24 241.764 51.612C242.088 51.984 242.256 52.47 242.268 53.07C242.268 53.61 242.118 54.096 241.818 54.528C241.518 54.96 241.092 55.302 240.54 55.554C240 55.794 239.376 55.914 238.668 55.914ZM248.072 55.914C247.316 55.914 246.638 55.788 246.038 55.536C245.438 55.272 244.964 54.912 244.616 54.456C244.268 53.988 244.076 53.454 244.04 52.854H245.732C245.78 53.346 246.008 53.748 246.416 54.06C246.836 54.372 247.382 54.528 248.054 54.528C248.678 54.528 249.17 54.39 249.53 54.114C249.89 53.838 250.07 53.49 250.07 53.07C250.07 52.638 249.878 52.32 249.494 52.116C249.11 51.9 248.516 51.69 247.712 51.486C246.98 51.294 246.38 51.102 245.912 50.91C245.456 50.706 245.06 50.412 244.724 50.028C244.4 49.632 244.238 49.116 244.238 48.48C244.238 47.976 244.388 47.514 244.688 47.094C244.988 46.674 245.414 46.344 245.966 46.104C246.518 45.852 247.148 45.726 247.856 45.726C248.948 45.726 249.83 46.002 250.502 46.554C251.174 47.106 251.534 47.862 251.582 48.822H249.944C249.908 48.306 249.698 47.892 249.314 47.58C248.942 47.268 248.438 47.112 247.802 47.112C247.214 47.112 246.746 47.238 246.398 47.49C246.05 47.742 245.876 48.072 245.876 48.48C245.876 48.804 245.978 49.074 246.182 49.29C246.398 49.494 246.662 49.662 246.974 49.794C247.298 49.914 247.742 50.052 248.306 50.208C249.014 50.4 249.59 50.592 250.034 50.784C250.478 50.964 250.856 51.24 251.168 51.612C251.492 51.984 251.66 52.47 251.672 53.07C251.672 53.61 251.522 54.096 251.222 54.528C250.922 54.96 250.496 55.302 249.944 55.554C249.404 55.794 248.78 55.914 248.072 55.914ZM254.506 55.86C254.194 55.86 253.93 55.752 253.714 55.536C253.498 55.32 253.39 55.056 253.39 54.744C253.39 54.432 253.498 54.168 253.714 53.952C253.93 53.736 254.194 53.628 254.506 53.628C254.806 53.628 255.058 53.736 255.262 53.952C255.478 54.168 255.586 54.432 255.586 54.744C255.586 55.056 255.478 55.32 255.262 55.536C255.058 55.752 254.806 55.86 254.506 55.86Z" fill="#1E1E1E"/>
</g>
<path d="M6.44962 0.132538C6.68492 0.0845391 6.96849 0.0305403 7.08312 0.0125407C7.19775 0.000541007 7.71662 -0.00545885 8.22945 0.00654087C8.78452 0.0185406 9.34562 0.0665395 9.61712 0.126538C9.86448 0.180537 10.1661 0.252535 10.2808 0.288534C10.3954 0.324533 10.6005 0.390532 10.7333 0.438531C10.866 0.48653 11.0591 0.558528 11.1556 0.600527C11.2521 0.642526 11.4995 0.756523 11.6986 0.858521C11.8977 0.954519 12.2476 1.15851 12.4829 1.31451C12.7182 1.46451 12.9897 1.6625 13.0863 1.7525C13.1828 1.8365 13.3879 2.01049 13.5327 2.13049C13.6775 2.25049 13.949 2.53248 14.1361 2.76648C14.3231 2.99447 14.486 3.19847 14.5041 3.21647C14.5222 3.23447 14.6187 3.36646 14.7153 3.51046C14.8178 3.66046 14.9264 3.83445 14.9687 3.90045C15.0049 3.97245 15.1316 4.21244 15.2462 4.44644C15.3548 4.67443 15.5177 5.05242 15.6022 5.28642C15.6866 5.51441 15.7892 5.83841 15.8314 6.0064C15.8737 6.1684 15.934 6.45639 15.9581 6.63639C15.9883 6.81638 16.0305 7.30237 16.0486 7.71636C16.0728 8.25635 16.0607 8.64634 15.9883 9.09633C15.94 9.44432 15.8314 9.95431 15.747 10.2363C15.6685 10.5183 15.5599 10.8543 15.5056 10.9863C15.4513 11.1183 15.3729 11.2923 15.3307 11.3763C15.2884 11.4603 15.1497 11.7123 15.023 11.9463C14.8902 12.1743 14.6429 12.5522 14.4679 12.7862C14.2929 13.0142 14.0033 13.3562 13.8223 13.5362C13.6413 13.7162 13.3879 13.9622 13.2612 14.0822C13.1345 14.1962 12.7967 14.4422 12.5131 14.6282C12.2295 14.8142 11.8253 15.0482 11.6081 15.1562C11.3909 15.2642 11.1737 15.3662 11.1254 15.3962C11.0772 15.4202 10.7634 15.5222 10.4316 15.6242C10.0998 15.7262 9.56282 15.8522 9.24305 15.9062C8.91725 15.9542 8.38028 15.9962 8.04845 15.9962C7.71662 15.9962 7.15552 15.9542 6.79955 15.9002C6.43755 15.8462 5.94282 15.7382 5.69546 15.6602C5.44809 15.5762 5.03782 15.4262 4.79046 15.3242C4.54309 15.2162 4.13283 15.0122 3.88546 14.8622C3.63809 14.7182 3.42089 14.5802 3.40279 14.5622C3.38469 14.5442 3.20973 14.4062 3.01063 14.2562C2.81153 14.1062 2.52796 13.8662 2.37713 13.7162C2.2263 13.5662 1.97893 13.2962 1.8281 13.1162C1.67726 12.9362 1.44196 12.6242 1.30923 12.4263C1.1765 12.2283 0.941198 11.8203 0.796399 11.5263C0.645565 11.2263 0.458532 10.7703 0.374066 10.5063C0.289599 10.2423 0.168933 9.81031 0.1086 9.54632C0.0301666 9.18033 0 8.80834 0 7.98636C0 7.15838 0.0241333 6.79238 0.1086 6.42639C0.168933 6.1624 0.295633 5.70041 0.398199 5.40642C0.494732 5.10642 0.687799 4.65043 0.820532 4.38644C0.953265 4.12245 1.18253 3.73245 1.3213 3.51646C1.4661 3.30046 1.68933 3.00647 1.81603 2.86247C1.94273 2.71248 2.2082 2.43648 2.4073 2.23849C2.6064 2.04649 2.97443 1.7285 3.22179 1.54251C3.46916 1.35651 3.94579 1.06252 4.27763 0.89452C4.60946 0.726524 5.00162 0.540528 5.15246 0.48653C5.30329 0.432531 5.55669 0.354533 5.72562 0.306534C5.88852 0.258535 6.21432 0.180537 6.44962 0.132538Z" fill="#46BFF5"/>
<path fill-rule="evenodd" clip-rule="evenodd" d="M28.1364 0C28.3355 0 28.8242 0.0359992 29.2224 0.0899979C29.6206 0.143997 30.1696 0.251994 30.4472 0.329992C30.7187 0.407991 31.1108 0.545987 31.316 0.629985C31.5271 0.713983 31.9012 0.893979 32.1486 1.03198C32.3959 1.16997 32.8062 1.43397 33.0536 1.61996C33.3009 1.79996 33.6931 2.14195 33.9224 2.36995C34.1456 2.59794 34.4472 2.93393 34.592 3.11393C34.7308 3.29392 34.9782 3.65992 35.1411 3.92391C35.2979 4.1879 35.5272 4.64389 35.6479 4.94389C35.7685 5.23788 35.9134 5.64587 35.9677 5.84386C36.022 6.04186 36.1124 6.43185 36.1607 6.71384C36.209 6.99584 36.2512 7.57782 36.2512 8.01581C36.2512 8.5618 36.215 9.00579 36.1305 9.42578C36.0642 9.76777 35.9435 10.2598 35.859 10.5238C35.7685 10.7877 35.5875 11.2317 35.4427 11.5137C35.304 11.7957 35.0566 12.2277 34.8937 12.4737C34.7248 12.7197 34.3748 13.1457 34.1094 13.4277C33.8439 13.7037 33.4518 14.0697 33.2346 14.2437C33.0174 14.4117 32.6795 14.6577 32.4804 14.7837C32.2813 14.9097 31.9012 15.1136 31.6357 15.2336C31.3703 15.3536 30.9781 15.5156 30.7609 15.5816C30.5437 15.6536 30.1093 15.7616 29.7956 15.8276C29.4456 15.8996 28.8061 15.9596 28.1666 15.9836C27.5874 16.0076 26.8392 16.0616 26.5074 16.1096C26.1756 16.1636 25.6869 16.2536 25.4214 16.3136C25.1559 16.3736 24.6793 16.5116 24.3656 16.6196C24.0518 16.7216 23.545 16.9196 23.2494 17.0576C22.9477 17.1896 22.4771 17.4296 22.1936 17.5916C21.91 17.7476 21.3791 18.0956 21.0171 18.3656C20.6551 18.6356 20.0879 19.1156 19.7621 19.4275C19.4363 19.7455 19.0019 20.2135 18.7968 20.4715C18.5917 20.7295 18.2659 21.1735 18.0728 21.4615C17.8797 21.7495 17.5419 22.3375 17.3307 22.7635C17.1135 23.1895 16.83 23.8794 16.6972 24.2934C16.5585 24.7074 16.3835 25.3794 16.299 25.7934C16.1965 26.3214 16.1361 26.8974 16.0999 27.7434C16.0698 28.4033 16.0155 29.1173 15.9793 29.3333C15.9431 29.5493 15.8707 29.8973 15.8164 30.1133C15.7621 30.3293 15.6233 30.7313 15.5147 31.0133C15.4001 31.2953 15.213 31.6973 15.0924 31.9133C14.9777 32.1293 14.7123 32.5312 14.5011 32.8132C14.2899 33.0952 13.8797 33.5512 13.584 33.8332C13.2944 34.1152 12.848 34.4872 12.6006 34.6552C12.3532 34.8172 11.9309 35.0632 11.6654 35.1952C11.4 35.3272 10.9776 35.5132 10.7303 35.5972C10.4829 35.6872 10.0304 35.8132 9.73477 35.8792C9.42707 35.9512 8.84787 36.0172 8.40743 36.0352C7.9489 36.0532 7.38177 36.0412 7.04994 35.9992C6.7362 35.9572 6.27767 35.8732 6.03634 35.8072C5.80104 35.7472 5.43301 35.6272 5.22787 35.5492C5.01671 35.4712 4.63057 35.3032 4.36511 35.1652C4.09964 35.0332 3.68334 34.7872 3.44804 34.6192C3.20671 34.4512 2.81454 34.1332 2.57925 33.9052C2.33791 33.6832 1.98798 33.3172 1.80095 33.0832C1.60788 32.8492 1.33035 32.4592 1.17951 32.2133C1.02868 31.9673 0.787348 31.4933 0.648582 31.1633C0.509816 30.8333 0.334849 30.3053 0.26245 29.9933C0.184016 29.6813 0.0874832 29.1113 0.0452499 28.7333C-0.0150833 28.1813 -0.0150833 27.9114 0.0452499 27.3834C0.0874832 27.0234 0.17195 26.5194 0.232283 26.2734C0.292616 26.0274 0.395183 25.6554 0.467582 25.4454C0.533949 25.2414 0.684782 24.8754 0.799415 24.6354C0.914048 24.4014 1.17348 23.9454 1.38465 23.6335C1.59581 23.3215 1.98798 22.8415 2.25345 22.5595C2.51891 22.2835 2.96538 21.8875 3.24894 21.6775C3.53251 21.4675 4.02121 21.1675 4.33494 21.0055C4.64867 20.8435 5.15547 20.6275 5.45111 20.5255C5.74674 20.4295 6.22337 20.3035 6.50694 20.2495C6.7905 20.1955 7.53864 20.1235 8.1661 20.0935C8.79357 20.0635 9.51153 20.0095 9.75286 19.9735C9.98816 19.9435 10.4407 19.8595 10.7484 19.7935C11.05 19.7275 11.587 19.5775 11.9369 19.4575C12.2869 19.3376 12.8661 19.1036 13.2341 18.9296C13.6021 18.7556 14.1572 18.4556 14.4709 18.2576C14.7847 18.0596 15.3035 17.6996 15.6173 17.4476C15.931 17.1956 16.4861 16.6856 16.8541 16.3016C17.2221 15.9236 17.7229 15.3236 17.9823 14.9577C18.2357 14.5977 18.6037 13.9917 18.8089 13.6137C19.008 13.2357 19.2674 12.6657 19.3881 12.3537C19.5087 12.0417 19.6716 11.5557 19.7561 11.2737C19.8406 10.9917 19.9612 10.4638 20.0276 10.1038C20.094 9.71977 20.1664 8.93379 20.2026 8.21381C20.2388 7.42183 20.2991 6.77984 20.3775 6.41385C20.4439 6.10186 20.5525 5.68187 20.6189 5.48387C20.6852 5.28588 20.8361 4.90789 20.9567 4.64389C21.0774 4.3799 21.3549 3.89391 21.5721 3.56392C21.8255 3.18593 22.1996 2.73594 22.5797 2.35795C22.9176 2.02795 23.3942 1.61996 23.6416 1.45797C23.8889 1.28997 24.2147 1.08597 24.3656 1.00198C24.5164 0.917979 24.8663 0.749983 25.1499 0.635985C25.4335 0.515988 25.8799 0.365992 26.1454 0.299993C26.4109 0.227995 26.8875 0.137997 27.2012 0.0899979C27.515 0.0479989 27.9373 0.00599986 28.1364 0ZM218.035 4.4339H220.328V30.9533H218.035V4.4339ZM166.299 13.1997C166.963 13.1937 167.404 13.2237 167.959 13.3197C168.375 13.3917 168.942 13.5297 169.226 13.6257C169.509 13.7277 169.932 13.9017 170.161 14.0157C170.39 14.1297 170.776 14.3577 171.005 14.5137C171.235 14.6757 171.639 15.0177 171.904 15.2756C172.164 15.5336 172.502 15.9116 172.659 16.1156C172.809 16.3196 172.954 16.4756 172.984 16.4636C173.009 16.4456 173.027 15.7976 173.027 13.6137H175.259L175.241 22.7755C175.223 31.8173 175.223 31.9493 175.096 32.5732C175.03 32.9212 174.927 33.3652 174.873 33.5632C174.825 33.7612 174.71 34.1272 174.625 34.3732C174.541 34.6192 174.33 35.0932 174.155 35.4232C173.98 35.7532 173.708 36.2092 173.558 36.4432C173.401 36.6712 173.075 37.0791 172.828 37.3431C172.586 37.6071 172.182 37.9791 171.935 38.1651C171.687 38.3511 171.271 38.6331 171.005 38.7831C170.74 38.9331 170.275 39.1491 169.98 39.2631C169.684 39.3771 169.141 39.5391 168.773 39.6231C168.405 39.7071 167.784 39.8151 167.385 39.8631C166.987 39.9111 166.511 39.9651 166.33 39.9891C166.149 40.0131 165.684 39.9951 165.304 39.9591C164.924 39.9171 164.381 39.8571 164.097 39.8271C163.814 39.7911 163.259 39.6831 162.86 39.5931C162.462 39.4971 161.853 39.3171 161.503 39.1851C161.153 39.0591 160.64 38.8371 160.357 38.6931C160.073 38.5551 159.651 38.3151 159.421 38.1651C159.192 38.0151 158.824 37.7571 158.607 37.5831C158.39 37.4151 158.028 37.0731 157.805 36.8271C157.581 36.5812 157.394 36.3472 157.4 36.3052C157.4 36.2692 157.491 36.1612 157.599 36.0772C157.702 35.9872 158.088 35.6332 158.456 35.2912C158.824 34.9552 159.132 34.6732 159.15 34.6732C159.168 34.6792 159.319 34.8532 159.482 35.0692C159.651 35.2792 159.904 35.5732 160.055 35.7172C160.206 35.8612 160.532 36.1312 160.779 36.3172C161.026 36.5032 161.461 36.7731 161.744 36.9171C162.028 37.0671 162.541 37.2831 162.891 37.3971C163.241 37.5111 163.796 37.6671 164.127 37.7391C164.646 37.8531 164.912 37.8711 166.058 37.8771C167.217 37.8771 167.458 37.8591 167.947 37.7451C168.248 37.6731 168.683 37.5411 168.912 37.4571C169.135 37.3731 169.521 37.1991 169.769 37.0671C170.016 36.9351 170.39 36.6951 170.601 36.5332C170.806 36.3652 171.138 36.0352 171.337 35.7952C171.53 35.5612 171.802 35.1712 171.935 34.9432C172.067 34.7092 172.285 34.2412 172.417 33.8932C172.544 33.5452 172.713 32.9812 172.785 32.6332C172.864 32.2373 172.936 31.6013 172.966 30.9233C172.996 30.3293 173.021 29.3513 173.027 28.7453C173.027 28.1453 173.009 27.6534 172.984 27.6534C172.954 27.6474 172.815 27.8154 172.665 28.0254C172.514 28.2353 172.2 28.5893 171.971 28.8233C171.742 29.0573 171.373 29.3693 171.156 29.5253C170.939 29.6753 170.631 29.8793 170.462 29.9753C170.3 30.0773 169.901 30.2573 169.588 30.3833C169.274 30.5093 168.809 30.6593 168.562 30.7193C168.315 30.7793 167.88 30.8513 167.597 30.8873C167.313 30.9233 166.758 30.9533 166.36 30.9533C165.962 30.9533 165.388 30.9233 165.093 30.8873C164.797 30.8513 164.333 30.7733 164.067 30.7073C163.802 30.6413 163.422 30.5333 163.222 30.4613C163.023 30.3953 162.577 30.2093 162.227 30.0413C161.877 29.8793 161.322 29.5673 160.99 29.3513C160.586 29.0813 160.152 28.7153 159.663 28.2293C159.216 27.7794 158.794 27.2874 158.553 26.9334C158.342 26.6214 158.04 26.0934 157.883 25.7634C157.72 25.4334 157.521 24.9474 157.43 24.6834C157.346 24.4194 157.219 23.8974 157.153 23.5255C157.081 23.1055 157.038 22.5775 157.038 22.1035C157.038 21.6895 157.068 21.1435 157.105 20.8855C157.141 20.6335 157.225 20.2195 157.286 19.9735C157.352 19.7275 157.497 19.2836 157.611 18.9836C157.726 18.6836 157.961 18.2036 158.13 17.9036C158.299 17.6036 158.589 17.1596 158.77 16.9136C158.957 16.6676 159.367 16.2056 159.687 15.8936C160.007 15.5816 160.514 15.1496 160.809 14.9457C161.111 14.7357 161.69 14.3937 162.106 14.1897C162.523 13.9857 163.132 13.7337 163.464 13.6257C163.796 13.5237 164.363 13.3857 164.731 13.3197C165.171 13.2417 165.696 13.1997 166.299 13.1997ZM164.851 15.3596C164.652 15.3956 164.284 15.4916 164.037 15.5756C163.79 15.6596 163.337 15.8516 163.041 16.0016C162.746 16.1576 162.293 16.4336 162.046 16.6196C161.799 16.7996 161.419 17.1416 161.201 17.3696C160.984 17.5976 160.682 17.9696 160.526 18.2036C160.375 18.4316 160.139 18.8396 160.007 19.1036C159.874 19.3676 159.699 19.7995 159.615 20.0635C159.53 20.3275 159.434 20.7715 159.391 21.0535C159.355 21.3355 159.325 21.8035 159.325 22.1035C159.325 22.4035 159.355 22.8295 159.385 23.0635C159.421 23.2915 159.518 23.7175 159.602 24.0054C159.687 24.2994 159.88 24.7854 160.031 25.0854C160.182 25.3914 160.435 25.8174 160.586 26.0334C160.743 26.2494 161.032 26.5974 161.231 26.8074C161.431 27.0174 161.811 27.3534 162.076 27.5514C162.342 27.7494 162.794 28.0254 163.09 28.1693C163.379 28.3133 163.814 28.4993 164.055 28.5773C164.29 28.6613 164.737 28.7693 165.032 28.8173C165.328 28.8713 165.865 28.9133 166.227 28.9133C166.619 28.9133 167.102 28.8713 167.464 28.7993C167.784 28.7333 168.254 28.6133 168.502 28.5233C168.749 28.4333 169.093 28.2893 169.256 28.2053C169.425 28.1273 169.787 27.9054 170.07 27.7194C170.354 27.5394 170.8 27.1674 171.066 26.9034C171.331 26.6394 171.681 26.2194 171.85 25.9734C172.013 25.7274 172.254 25.3194 172.381 25.0734C172.502 24.8274 172.677 24.4134 172.755 24.1554C172.84 23.9034 172.948 23.4415 172.996 23.1355C173.045 22.8355 173.087 22.3555 173.087 22.0735C173.087 21.7915 173.045 21.3235 172.996 21.0235C172.948 20.7235 172.852 20.2915 172.779 20.0635C172.713 19.8295 172.55 19.4275 172.423 19.1636C172.297 18.8996 172.043 18.4676 171.868 18.2036C171.693 17.9396 171.331 17.5076 171.066 17.2436C170.8 16.9796 170.336 16.6016 170.04 16.4096C169.738 16.2116 169.304 15.9656 169.075 15.8576C168.846 15.7496 168.423 15.5936 168.14 15.5156C167.856 15.4316 167.416 15.3296 167.162 15.2996C166.903 15.2636 166.426 15.2396 166.106 15.2396C165.781 15.2456 165.449 15.2576 165.364 15.2696C165.28 15.2876 165.051 15.3236 164.851 15.3596ZM46.5079 4.1339H52.2878C55.8897 4.1339 58.2547 4.1579 58.5745 4.1939C58.8581 4.2299 59.3287 4.3079 59.6303 4.3739C59.932 4.4339 60.3905 4.55989 60.656 4.64389C60.9215 4.73389 61.3981 4.92589 61.7118 5.06988C62.0256 5.21988 62.5565 5.51987 62.8883 5.73587C63.2503 5.97586 63.733 6.37785 64.101 6.73784C64.4751 7.10984 64.8552 7.56582 65.0845 7.91382C65.2956 8.22581 65.5671 8.6998 65.6938 8.96379C65.8205 9.22779 65.9955 9.65978 66.086 9.92377C66.1765 10.1878 66.3092 10.6618 66.3756 10.9737C66.4902 11.4717 66.5023 11.7297 66.5023 13.0437C66.5023 14.3817 66.4842 14.6097 66.3635 15.1736C66.2911 15.5216 66.1343 16.0856 66.0196 16.4336C65.899 16.7816 65.6697 17.3336 65.4947 17.6636C65.3258 17.9936 65.0241 18.4796 64.825 18.7436C64.632 19.0076 64.276 19.4156 64.0407 19.6435C63.8054 19.8775 63.4615 20.1775 63.2805 20.3095C63.0995 20.4415 62.7435 20.6755 62.4962 20.8255C62.2488 20.9695 61.7722 21.2095 61.4403 21.3475C61.1085 21.4915 60.5957 21.6715 60.294 21.7495C59.9923 21.8275 59.5217 21.9355 59.2382 21.9955C58.8098 22.0795 58.1763 22.1035 51.787 22.1635L51.7569 31.1333H46.5079V4.1339ZM51.7569 17.3936C57.5488 17.3576 57.6514 17.3576 58.122 17.2196C58.3875 17.1476 58.8219 16.9736 59.0873 16.8356C59.4312 16.6556 59.7088 16.4456 60.0527 16.1036C60.4569 15.7076 60.5896 15.5216 60.8189 15.0537C60.9758 14.7417 61.1447 14.2857 61.193 14.0457C61.2473 13.8117 61.2895 13.3497 61.2895 13.0257C61.2895 12.6297 61.2533 12.2877 61.1688 11.9637C61.0964 11.6997 60.9637 11.3217 60.8672 11.1237C60.7706 10.9257 60.5896 10.6318 60.4629 10.4638C60.3362 10.3018 60.0708 10.0378 59.8717 9.87577C59.6726 9.71978 59.3166 9.49178 59.0873 9.37778C58.8581 9.26379 58.4719 9.11379 58.2427 9.04179C57.8384 8.91579 57.7057 8.90979 54.7916 8.88579L51.7629 8.86779L51.7569 17.3936ZM124.217 4.4339H129.092C131.771 4.4339 134.244 4.4639 134.594 4.4939C134.944 4.5239 135.566 4.60789 135.982 4.67389C136.398 4.74589 136.953 4.85389 137.219 4.91989C137.484 4.98588 137.949 5.12388 138.245 5.21988C138.546 5.32188 139.071 5.52587 139.421 5.67587C139.771 5.82587 140.26 6.05386 140.507 6.18586C140.754 6.32385 141.153 6.55785 141.382 6.70784C141.617 6.85784 142.064 7.18783 142.377 7.43983C142.691 7.69182 143.156 8.11181 143.403 8.36981C143.65 8.6278 144.03 9.07179 144.242 9.35378C144.453 9.63578 144.73 10.0378 144.851 10.2538C144.978 10.4698 145.219 10.9257 145.394 11.2737C145.569 11.6217 145.804 12.1437 145.919 12.4437C146.034 12.7377 146.209 13.2657 146.305 13.6137C146.408 13.9617 146.54 14.5017 146.607 14.8137C146.673 15.1256 146.77 15.8696 146.824 16.4636C146.902 17.3756 146.908 17.6996 146.848 18.5636C146.812 19.1216 146.739 19.8235 146.685 20.1235C146.637 20.4175 146.504 21.0175 146.39 21.4555C146.275 21.8935 146.07 22.5415 145.931 22.8955C145.798 23.2495 145.521 23.8674 145.316 24.2634C145.11 24.6594 144.767 25.2534 144.543 25.5834C144.326 25.9134 143.946 26.4114 143.699 26.6874C143.451 26.9694 143.011 27.4074 142.709 27.6714C142.414 27.9294 141.883 28.3313 141.533 28.5653C141.183 28.7993 140.61 29.1293 140.254 29.3093C139.898 29.4893 139.324 29.7413 138.987 29.8793C138.643 30.0173 138.148 30.1913 137.883 30.2693C137.617 30.3533 137.237 30.4553 137.038 30.4973C136.839 30.5453 136.35 30.6413 135.952 30.7073C135.554 30.7733 134.86 30.8573 134.413 30.8873C133.943 30.9233 131.632 30.9533 124.217 30.9533V4.4339ZM126.691 28.6733C132.477 28.6733 133.339 28.6553 133.931 28.5833C134.347 28.5293 134.914 28.4453 135.198 28.3973C135.481 28.3493 136.012 28.2293 136.374 28.1333C136.742 28.0373 137.297 27.8694 137.611 27.7554C137.925 27.6414 138.468 27.4074 138.818 27.2334C139.168 27.0594 139.723 26.7414 140.055 26.5254C140.471 26.2494 140.905 25.8834 141.448 25.3434C141.973 24.8214 142.359 24.3714 142.619 23.9934C142.824 23.6814 143.125 23.1655 143.282 22.8535C143.439 22.5415 143.65 22.0555 143.753 21.7735C143.849 21.4915 143.988 21.0175 144.061 20.7235C144.127 20.4235 144.224 19.8835 144.278 19.5235C144.332 19.1156 144.368 18.4196 144.368 17.7236C144.368 17.0456 144.332 16.3016 144.278 15.8936C144.23 15.5156 144.127 14.9577 144.061 14.6637C143.988 14.3637 143.849 13.8957 143.753 13.6137C143.65 13.3317 143.487 12.9297 143.385 12.7137C143.282 12.4977 143.047 12.0777 142.866 11.7837C142.685 11.4837 142.456 11.1357 142.353 11.0037C142.257 10.8717 142.021 10.5898 141.84 10.3798C141.653 10.1698 141.273 9.80377 140.99 9.56378C140.706 9.32978 140.272 8.99979 140.024 8.83179C139.777 8.6638 139.367 8.41781 139.119 8.28581C138.872 8.14781 138.395 7.93182 138.064 7.79982C137.732 7.67382 137.327 7.51783 137.159 7.46383C136.996 7.40983 136.616 7.30183 136.314 7.22383C136.018 7.14583 135.457 7.02584 135.077 6.95984C134.697 6.89384 134.088 6.80984 133.72 6.77384C133.358 6.74384 131.626 6.71384 129.876 6.71384H126.691V28.6733ZM152.031 5.11188C152.344 5.12388 152.562 5.17188 152.743 5.26188C152.881 5.33388 153.08 5.47787 153.189 5.58587C153.292 5.69387 153.442 5.91586 153.521 6.08386C153.617 6.28785 153.66 6.49785 153.66 6.74384C153.66 6.94184 153.623 7.22383 153.569 7.37383C153.521 7.52383 153.394 7.75182 153.28 7.88382C153.171 8.01581 152.93 8.19581 152.755 8.28581C152.477 8.42381 152.35 8.4538 151.97 8.4538C151.651 8.4478 151.439 8.41781 151.246 8.32781C151.096 8.26181 150.884 8.11781 150.776 8.01581C150.661 7.90782 150.516 7.71582 150.444 7.58382C150.335 7.38583 150.311 7.24183 150.311 6.77384C150.311 6.26986 150.329 6.17386 150.468 5.93386C150.559 5.78387 150.733 5.57987 150.86 5.47787C150.993 5.37588 151.204 5.24988 151.337 5.18988C151.512 5.11788 151.705 5.09988 152.031 5.11188ZM180.448 5.11188C180.804 5.12388 180.96 5.15988 181.172 5.27988C181.322 5.36388 181.54 5.54387 181.654 5.67587C181.769 5.80787 181.914 6.05986 181.974 6.23986C182.034 6.41985 182.083 6.65985 182.077 6.77384C182.077 6.88784 182.04 7.11584 181.992 7.28383C181.938 7.46983 181.805 7.69782 181.642 7.88382C181.491 8.04581 181.25 8.24381 181.093 8.31581C180.876 8.4238 180.701 8.4538 180.357 8.4538C180.049 8.4538 179.826 8.4178 179.651 8.33981C179.506 8.27981 179.295 8.13581 179.175 8.02781C179.06 7.91382 178.897 7.70382 178.819 7.55382C178.704 7.34383 178.674 7.18783 178.674 6.83384C178.674 6.58785 178.71 6.27585 178.758 6.14386C178.807 6.01186 178.939 5.79587 179.06 5.66987C179.175 5.54387 179.368 5.38187 179.482 5.31588C179.597 5.24388 179.76 5.17188 179.844 5.14188C179.929 5.11788 180.2 5.10588 180.448 5.11188ZM189.202 8.6278L191.458 8.6638L191.489 13.6137H196.436V15.6536H191.489V21.5455C191.489 26.5914 191.507 27.4914 191.579 27.7734C191.633 27.9534 191.736 28.2113 191.814 28.3433C191.899 28.4753 192.05 28.6673 192.164 28.7753C192.273 28.8773 192.502 29.0333 192.665 29.1173C192.834 29.2013 193.172 29.2973 193.419 29.3333C193.727 29.3753 194.029 29.3813 194.354 29.3393C194.62 29.3093 195.012 29.2373 195.229 29.1833C195.446 29.1233 195.796 29.0153 196.014 28.9373C196.231 28.8593 196.418 28.8113 196.436 28.8293C196.454 28.8473 196.484 29.0993 196.508 29.3813C196.532 29.6693 196.575 30.1073 196.635 30.8033L196.339 30.9053C196.176 30.9593 195.833 31.0613 195.579 31.1273C195.32 31.1993 194.861 31.2953 194.554 31.3433C194.246 31.3913 193.817 31.4333 193.6 31.4333C193.383 31.4333 192.979 31.3913 192.695 31.3433C192.412 31.2953 192.062 31.2173 191.911 31.1693C191.76 31.1273 191.477 31.0073 191.277 30.9053C191.078 30.8093 190.777 30.6173 190.602 30.4793C190.427 30.3413 190.143 30.0353 189.98 29.7953C189.811 29.5553 189.618 29.2133 189.552 29.0333C189.479 28.8533 189.377 28.4573 189.311 28.1633C189.208 27.6534 189.196 27.2634 189.196 15.6536H185.395L185.425 13.6437L189.196 13.6137L189.202 8.6278ZM100.271 13.1037C100.814 13.1157 101.357 13.1517 101.689 13.2237L101.719 18.2276L101.128 18.0656C100.578 17.9156 100.458 17.9036 99.3356 17.9036C98.2436 17.9036 98.0807 17.9156 97.6463 18.0416C97.3808 18.1196 96.9766 18.2816 96.7413 18.4016C96.5 18.5276 96.1742 18.7676 95.969 18.9776C95.7096 19.2356 95.5346 19.4875 95.3476 19.8775C95.2028 20.1775 95.0459 20.6095 94.9977 20.8375C94.9434 21.0715 94.877 21.5035 94.8408 21.7975C94.8046 22.1275 94.7805 24.0714 94.7805 31.0673H89.2901V13.4877H94.7805L94.8106 16.2776L95.0459 15.8876C95.1787 15.6776 95.3959 15.3536 95.5407 15.1676C95.6794 14.9877 95.9087 14.7177 96.0535 14.5737C96.1983 14.4237 96.4939 14.1717 96.7111 14.0097C96.9223 13.8477 97.2662 13.6377 97.4653 13.5477C97.6644 13.4577 98.0023 13.3377 98.2195 13.2777C98.4306 13.2237 98.7564 13.1517 98.9435 13.1277C99.1245 13.0977 99.7218 13.0857 100.271 13.1037ZM112.066 13.0797C112.53 13.0737 113.218 13.0977 113.604 13.1337C113.985 13.1697 114.552 13.2537 114.871 13.3197C115.185 13.3857 115.662 13.5177 115.927 13.6137C116.193 13.7037 116.573 13.8657 116.772 13.9737C116.971 14.0817 117.297 14.2797 117.496 14.4237C117.695 14.5617 118.021 14.8497 118.226 15.0597C118.425 15.2696 118.715 15.6296 118.865 15.8576C119.016 16.0916 119.227 16.4696 119.33 16.6976C119.439 16.9316 119.589 17.3336 119.668 17.5976C119.746 17.8616 119.849 18.2936 119.903 18.5576C119.951 18.8216 120.036 19.3915 120.09 19.8175C120.163 20.4535 120.181 21.5635 120.181 31.0673H115.173V30.0473C115.173 29.4293 115.149 29.0153 115.113 28.9973C115.077 28.9853 114.956 29.0993 114.847 29.2553C114.733 29.4113 114.479 29.6873 114.286 29.8733C114.093 30.0533 113.81 30.2873 113.665 30.3893C113.514 30.4913 113.254 30.6413 113.092 30.7253C112.923 30.8093 112.609 30.9413 112.398 31.0253C112.181 31.1033 111.77 31.2293 111.493 31.3013C111.209 31.3673 110.654 31.4513 110.256 31.4873C109.755 31.5293 109.309 31.5353 108.82 31.4873C108.434 31.4573 107.879 31.3733 107.601 31.3073C107.318 31.2413 106.901 31.1213 106.678 31.0373C106.455 30.9533 106.093 30.7853 105.882 30.6713C105.665 30.5513 105.339 30.3413 105.158 30.1973C104.971 30.0593 104.699 29.8133 104.548 29.6513C104.398 29.4893 104.156 29.1833 104.017 28.9673C103.879 28.7573 103.68 28.3793 103.577 28.1273C103.474 27.8814 103.354 27.4794 103.306 27.2274C103.251 26.9814 103.215 26.4714 103.215 26.0874C103.215 25.7094 103.245 25.2114 103.281 24.9774C103.324 24.7494 103.42 24.3714 103.499 24.1374C103.583 23.9094 103.764 23.5195 103.903 23.2735C104.048 23.0335 104.349 22.6375 104.585 22.3975C104.814 22.1575 105.236 21.8155 105.52 21.6355C105.797 21.4555 106.208 21.2215 106.425 21.1195C106.636 21.0175 107.058 20.8555 107.36 20.7535C107.656 20.6575 108.199 20.5075 108.567 20.4235C108.929 20.3455 109.616 20.2195 110.087 20.1535C110.564 20.0875 111.432 20.0035 112.018 19.9675C112.609 19.9375 113.562 19.9135 115.203 19.9135L115.155 19.5655C115.131 19.3736 115.083 19.1276 115.046 19.0076C115.01 18.8936 114.908 18.6536 114.817 18.4736C114.733 18.2936 114.521 18.0116 114.359 17.8436C114.19 17.6756 113.894 17.4416 113.695 17.3216C113.496 17.2016 113.152 17.0396 112.941 16.9676C112.645 16.8656 112.362 16.8296 111.794 16.8056C111.173 16.7816 110.938 16.7996 110.467 16.9076C110.147 16.9796 109.653 17.1476 109.351 17.2916C109.049 17.4356 108.591 17.7116 108.325 17.9096C108.06 18.1136 107.71 18.4076 107.263 18.8576L105.864 17.4596C105.091 16.6916 104.44 16.0196 104.41 15.9596C104.361 15.8816 104.416 15.8036 104.651 15.5996C104.814 15.4616 105.176 15.1856 105.459 14.9937C105.737 14.8017 106.171 14.5377 106.425 14.4057C106.672 14.2737 107.119 14.0697 107.42 13.9497C107.716 13.8297 108.193 13.6677 108.476 13.5897C108.754 13.5057 109.26 13.3857 109.592 13.3137C109.924 13.2477 110.425 13.1637 110.708 13.1337C110.986 13.1097 111.601 13.0797 112.066 13.0797ZM111.282 23.5675C111.083 23.6035 110.702 23.7054 110.437 23.7894C110.171 23.8734 109.767 24.0534 109.538 24.1914C109.309 24.3294 109.013 24.5634 108.886 24.7074C108.754 24.8574 108.609 25.1154 108.555 25.2774C108.488 25.4874 108.464 25.7154 108.488 26.0274C108.5 26.2794 108.555 26.5494 108.597 26.6274C108.645 26.7114 108.778 26.8854 108.898 27.0114C109.013 27.1374 109.273 27.3234 109.472 27.4194C109.671 27.5214 109.954 27.6414 110.105 27.6894C110.25 27.7314 110.594 27.7854 110.859 27.8094C111.191 27.8334 111.511 27.8094 111.885 27.7434C112.181 27.6894 112.561 27.5994 112.73 27.5454C112.892 27.4974 113.194 27.3714 113.393 27.2754C113.592 27.1734 113.876 26.9934 114.027 26.8734C114.178 26.7594 114.383 26.5674 114.485 26.4474C114.582 26.3334 114.709 26.1714 114.757 26.0874C114.811 26.0094 114.914 25.7754 114.992 25.5774C115.107 25.2714 115.131 25.0854 115.149 24.3054L115.173 23.3875C113.327 23.4055 112.53 23.4235 112.217 23.4475C111.897 23.4715 111.481 23.5255 111.282 23.5675ZM207.634 13.2177C208.388 13.2237 208.973 13.2657 209.353 13.3377C209.667 13.3917 210.168 13.5237 210.469 13.6257C210.765 13.7217 211.175 13.8837 211.374 13.9857C211.574 14.0817 211.881 14.2617 212.068 14.3757C212.249 14.4897 212.593 14.7777 212.822 15.0117C213.058 15.2456 213.365 15.6296 213.504 15.8576C213.643 16.0916 213.836 16.5236 213.939 16.8176C214.041 17.1176 214.168 17.5736 214.216 17.8376C214.289 18.2276 214.319 19.2476 214.361 23.2675C214.391 25.9914 214.439 28.5833 214.476 29.0273C214.512 29.4773 214.566 30.0413 214.596 30.2873C214.632 30.5393 214.657 30.7853 214.657 30.8453C214.663 30.9413 214.572 30.9473 213.607 30.9473C212.557 30.9473 212.551 30.9473 212.521 30.8153C212.509 30.7373 212.479 30.5453 212.454 30.3773C212.43 30.2153 212.382 29.6453 212.279 28.1573L211.996 28.5773C211.845 28.8113 211.519 29.2133 211.272 29.4713C211.031 29.7293 210.669 30.0653 210.469 30.2153C210.27 30.3653 209.86 30.5993 209.564 30.7433C209.263 30.8813 208.816 31.0553 208.569 31.1213C208.316 31.1933 207.791 31.2893 207.392 31.3373C206.994 31.3913 206.445 31.4273 206.168 31.4273C205.896 31.4273 205.365 31.3853 204.991 31.3313C204.617 31.2833 204.08 31.1753 203.803 31.0913C203.519 31.0133 203.042 30.8273 202.747 30.6833C202.445 30.5393 202.011 30.2693 201.781 30.0893C201.546 29.9093 201.263 29.6453 201.142 29.5013C201.027 29.3573 200.87 29.1593 200.804 29.0573C200.732 28.9613 200.611 28.7573 200.526 28.6073C200.448 28.4633 200.321 28.1753 200.255 27.9774C200.189 27.7794 200.098 27.3894 200.056 27.1074C200.008 26.7894 199.996 26.3394 200.02 25.9074C200.038 25.5174 200.11 25.0074 200.183 24.7374C200.249 24.4734 200.412 24.0594 200.545 23.8074C200.695 23.5195 200.937 23.1955 201.22 22.9015C201.462 22.6555 201.824 22.3315 202.023 22.1875C202.222 22.0435 202.572 21.8215 202.807 21.7015C203.036 21.5755 203.416 21.4015 203.652 21.3175C203.881 21.2275 204.249 21.1015 204.466 21.0415C204.677 20.9815 205.112 20.8735 205.432 20.8075C205.745 20.7415 206.409 20.6455 206.91 20.5915C207.495 20.5315 208.611 20.4835 212.34 20.4355L212.291 19.4995C212.267 18.8696 212.207 18.4016 212.123 18.0776C212.056 17.8136 211.911 17.4356 211.809 17.2436C211.7 17.0456 211.465 16.7336 211.284 16.5476C211.097 16.3616 210.747 16.0976 210.5 15.9596C210.246 15.8216 209.788 15.6296 209.474 15.5336C209.154 15.4316 208.69 15.3236 208.43 15.2936C208.177 15.2576 207.712 15.2276 207.404 15.2276C207.097 15.2276 206.614 15.2576 206.337 15.2936C206.053 15.3296 205.619 15.4076 205.371 15.4676C205.118 15.5276 204.683 15.6656 204.406 15.7796C204.122 15.8876 203.676 16.1036 203.416 16.2476C203.157 16.3976 202.759 16.6616 202.53 16.8356C202.3 17.0096 202.089 17.1476 202.065 17.1476C202.041 17.1416 201.733 16.7996 200.738 15.6176L200.985 15.3956C201.124 15.2696 201.468 15.0117 201.751 14.8197C202.029 14.6277 202.493 14.3637 202.777 14.2257C203.054 14.0937 203.531 13.9017 203.833 13.8057C204.128 13.7037 204.605 13.5657 204.889 13.4997C205.166 13.4277 205.643 13.3317 205.944 13.2837C206.318 13.2237 206.843 13.1997 207.634 13.2177ZM207.061 22.4575C206.674 22.5175 206.119 22.6255 205.824 22.7035C205.522 22.7815 205.045 22.9315 204.768 23.0455C204.484 23.1535 204.062 23.3695 203.833 23.5195C203.597 23.6695 203.248 23.9694 203.054 24.1794C202.861 24.3894 202.65 24.6534 202.59 24.7674C202.536 24.8874 202.445 25.1274 202.391 25.3074C202.337 25.4934 202.294 25.8474 202.294 26.1174C202.294 26.3814 202.33 26.7354 202.373 26.8974C202.415 27.0654 202.53 27.3474 202.626 27.5274C202.729 27.7074 202.97 28.0193 203.169 28.2173C203.435 28.4813 203.688 28.6553 204.104 28.8593C204.418 29.0093 204.895 29.1893 205.16 29.2493C205.51 29.3273 205.866 29.3513 206.457 29.3513C206.928 29.3453 207.495 29.3033 207.815 29.2433C208.11 29.1893 208.49 29.0993 208.659 29.0453C208.822 28.9973 209.148 28.8593 209.383 28.7453C209.613 28.6253 209.926 28.4513 210.077 28.3493C210.222 28.2473 210.506 28.0134 210.699 27.8334C210.898 27.6474 211.157 27.3534 211.284 27.1674C211.405 26.9874 211.574 26.7054 211.658 26.5374C211.742 26.3754 211.869 26.0514 211.942 25.8174C212.014 25.5894 212.11 25.1574 212.165 24.8574C212.219 24.5334 212.261 23.9094 212.267 23.2975L212.279 22.2775C210.035 22.2715 209.015 22.2895 208.569 22.3135C208.116 22.3375 207.441 22.4035 207.061 22.4575ZM68.4088 13.4877L73.875 13.5177L73.9052 18.8276C73.9353 23.9814 73.9414 24.1554 74.062 24.5874C74.1344 24.8394 74.2672 25.1994 74.3637 25.3914C74.4602 25.5834 74.6654 25.8774 74.8222 26.0394C74.9791 26.1954 75.2265 26.3874 75.3652 26.4594C75.51 26.5254 75.7996 26.6214 76.0168 26.6634C76.228 26.7114 76.5478 26.7474 76.7227 26.7474C76.8977 26.7474 77.2356 26.7114 77.4769 26.6634C77.7182 26.6214 78.0742 26.5074 78.2673 26.4114C78.4603 26.3154 78.756 26.1054 78.9249 25.9374C79.0938 25.7754 79.2929 25.5294 79.3714 25.3974C79.4438 25.2654 79.5644 24.9954 79.6368 24.7974C79.7032 24.5994 79.7997 24.1974 79.848 23.8974C79.9204 23.4595 79.9385 22.4635 79.9385 13.4877H85.4288V31.0673H80.1798L80.1497 28.6973L79.9083 29.0573C79.7756 29.2553 79.5403 29.5493 79.3895 29.7173C79.2386 29.8853 78.9249 30.1553 78.6956 30.3293C78.4664 30.4973 78.1104 30.7193 77.8992 30.8213C77.6941 30.9233 77.3381 31.0793 77.1149 31.1633C76.8917 31.2413 76.5055 31.3553 76.2582 31.4093C75.9444 31.4753 75.504 31.5053 74.8403 31.5053C74.2189 31.5053 73.6699 31.4693 73.3018 31.4033C72.9821 31.3493 72.5658 31.2533 72.3667 31.1933C72.1676 31.1333 71.8538 31.0133 71.6728 30.9353C71.4858 30.8573 71.1781 30.6833 70.979 30.5513C70.7799 30.4193 70.4662 30.1613 70.2791 29.9813C70.0981 29.8073 69.8327 29.4953 69.7 29.2973C69.5672 29.0993 69.3802 28.7933 69.2897 28.6073C69.1992 28.4273 69.0604 28.1033 68.988 27.8874C68.9096 27.6774 68.807 27.3114 68.7527 27.0774C68.6984 26.8494 68.6079 26.3754 68.5536 26.0274C68.4692 25.4814 68.4511 24.6174 68.433 19.4455L68.4088 13.4877ZM150.83 13.6077H153.123V30.9473H150.83V13.6077ZM181.479 13.6077V30.9473L179.217 30.9173L179.199 22.3375C179.193 17.6156 179.199 13.7217 179.211 13.6797C179.235 13.6257 179.518 13.6077 181.479 13.6077ZM28.4743 20.1235C28.8845 20.1355 29.4034 20.1715 29.6206 20.2075C29.8318 20.2435 30.2843 20.3515 30.6161 20.4535C30.9479 20.5555 31.4487 20.7535 31.7323 20.8915C32.0098 21.0295 32.3899 21.2395 32.5769 21.3535C32.7579 21.4735 33.1079 21.7315 33.3613 21.9295C33.6086 22.1275 33.9706 22.4635 34.1637 22.6735C34.3568 22.8835 34.6765 23.2975 34.8756 23.5975C35.0747 23.8914 35.3462 24.3534 35.4729 24.6174C35.5996 24.8814 35.7746 25.3134 35.859 25.5774C35.9435 25.8414 36.0581 26.2434 36.1124 26.4774C36.1607 26.7054 36.221 27.3174 36.2331 27.8274C36.2633 28.6133 36.2452 28.8713 36.1366 29.4773C36.0642 29.8733 35.9073 30.4553 35.7927 30.7673C35.678 31.0793 35.4669 31.5533 35.3281 31.8173C35.1893 32.0813 34.9118 32.5132 34.7188 32.7772C34.5257 33.0412 34.1335 33.4852 33.8439 33.7672C33.5604 34.0492 33.0536 34.4572 32.7217 34.6792C32.3899 34.9012 31.9193 35.1712 31.6719 35.2852C31.4185 35.3992 31.0445 35.5492 30.8393 35.6212C30.6342 35.6872 30.2119 35.8072 29.9042 35.8792C29.4456 35.9872 29.156 36.0112 28.2631 36.0112C27.4245 36.0112 27.0625 35.9872 26.6944 35.9092C26.429 35.8492 25.9946 35.7292 25.7291 35.6452C25.4636 35.5612 24.9448 35.3392 24.5828 35.1532C24.2147 34.9732 23.714 34.6672 23.4666 34.4812C23.2132 34.2952 22.7547 33.8752 22.4409 33.5452C22.1212 33.2212 21.7411 32.7652 21.5842 32.5312C21.4334 32.3033 21.1981 31.9013 21.0653 31.6373C20.9326 31.3733 20.7395 30.9113 20.643 30.6173C20.5404 30.3173 20.4077 29.8493 20.3534 29.5673C20.275 29.1953 20.2448 28.7933 20.2448 28.0673C20.2448 27.2934 20.275 26.9514 20.3715 26.5074C20.4379 26.1954 20.5706 25.7214 20.6611 25.4574C20.7456 25.1934 20.9567 24.7194 21.1257 24.4074C21.2886 24.0954 21.5721 23.6335 21.7471 23.3875C21.9281 23.1415 22.2841 22.7275 22.5435 22.4755C22.7969 22.2175 23.0805 21.9535 23.1649 21.8815C23.2434 21.8095 23.533 21.6055 23.7984 21.4375C24.0639 21.2635 24.4802 21.0175 24.7336 20.8975C24.981 20.7715 25.4154 20.5975 25.6989 20.5075C25.9765 20.4115 26.441 20.2975 26.7246 20.2435C27.0021 20.1955 27.346 20.1415 27.4788 20.1235C27.6115 20.1115 28.058 20.1115 28.4743 20.1235Z" fill="#1E1E1E"/>
<path d="M29.2224 0.0899979C28.8242 0.0359992 28.3355 0 28.1364 0C27.9373 0.00599986 27.515 0.0479989 27.2012 0.0899979C26.8875 0.137997 26.4109 0.227995 26.1454 0.299993C25.8799 0.365992 25.4335 0.515988 25.1499 0.635985C24.8663 0.749983 24.5164 0.917979 24.3656 1.00198C24.2147 1.08597 23.8889 1.28997 23.6416 1.45797C23.3942 1.61996 22.9176 2.02795 22.5797 2.35795C22.1996 2.73594 21.8255 3.18593 21.5721 3.56392C21.3549 3.89391 21.0774 4.3799 20.9567 4.64389C20.8361 4.90789 20.6852 5.28588 20.6189 5.48387C20.5525 5.68187 20.4439 6.10186 20.3775 6.41385C20.2991 6.77984 20.2388 7.42183 20.2026 8.21381C20.1664 8.93379 20.094 9.71977 20.0276 10.1038C19.9612 10.4638 19.8406 10.9917 19.7561 11.2737C19.6716 11.5557 19.5087 12.0417 19.3881 12.3537C19.2674 12.6657 19.008 13.2357 18.8089 13.6137C18.6037 13.9917 18.2357 14.5977 17.9823 14.9577C17.7229 15.3236 17.2221 15.9236 16.8541 16.3016C16.4861 16.6856 15.931 17.1956 15.6173 17.4476C15.3035 17.6996 14.7847 18.0596 14.4709 18.2576C14.1572 18.4556 13.6021 18.7556 13.2341 18.9296C12.8661 19.1036 12.2869 19.3376 11.9369 19.4575C11.587 19.5775 11.05 19.7275 10.7484 19.7935C10.4407 19.8595 9.98816 19.9435 9.75286 19.9735C9.51153 20.0095 8.79357 20.0635 8.1661 20.0935C7.53864 20.1235 6.7905 20.1955 6.50694 20.2495C6.22337 20.3035 5.74674 20.4295 5.45111 20.5255C5.15547 20.6275 4.64867 20.8435 4.33494 21.0055C4.02121 21.1675 3.53251 21.4675 3.24894 21.6775C2.96538 21.8875 2.51891 22.2835 2.25345 22.5595C1.98798 22.8415 1.59581 23.3215 1.38465 23.6335C1.17348 23.9454 0.914048 24.4014 0.799415 24.6354C0.684782 24.8754 0.533949 25.2414 0.467582 25.4454C0.395183 25.6554 0.292616 26.0274 0.232283 26.2734C0.17195 26.5194 0.0874832 27.0234 0.0452499 27.3834C-0.0150833 27.9114 -0.0150833 28.1813 0.0452499 28.7333C0.0874832 29.1113 0.184016 29.6813 0.26245 29.9933C0.334849 30.3053 0.509816 30.8333 0.648582 31.1633C0.787348 31.4933 1.02868 31.9673 1.17951 32.2133C1.33035 32.4592 1.60788 32.8492 1.80095 33.0832C1.98798 33.3172 2.33791 33.6832 2.57925 33.9052C2.81454 34.1332 3.20671 34.4512 3.44804 34.6192C3.68334 34.7872 4.09964 35.0332 4.36511 35.1652C4.63057 35.3032 5.01671 35.4712 5.22787 35.5492C5.43301 35.6272 5.80104 35.7472 6.03634 35.8072C6.27767 35.8732 6.7362 35.9572 7.04994 35.9992C7.38177 36.0412 7.9489 36.0532 8.40743 36.0352C8.84787 36.0172 9.42707 35.9512 9.73477 35.8792C10.0304 35.8132 10.4829 35.6872 10.7303 35.5972C10.9776 35.5132 11.4 35.3272 11.6654 35.1952C11.9309 35.0632 12.3532 34.8172 12.6006 34.6552C12.848 34.4872 13.2944 34.1152 13.584 33.8332C13.8797 33.5512 14.2899 33.0952 14.5011 32.8132C14.7123 32.5312 14.9777 32.1293 15.0924 31.9133C15.213 31.6973 15.4001 31.2953 15.5147 31.0133C15.6233 30.7313 15.7621 30.3293 15.8164 30.1133C15.8707 29.8973 15.9431 29.5493 15.9793 29.3333C16.0155 29.1173 16.0698 28.4033 16.0999 27.7434C16.1361 26.8974 16.1965 26.3214 16.299 25.7934C16.3835 25.3794 16.5585 24.7074 16.6972 24.2934C16.83 23.8794 17.1135 23.1895 17.3307 22.7635C17.5419 22.3375 17.8797 21.7495 18.0728 21.4615C18.2659 21.1735 18.5917 20.7295 18.7968 20.4715C19.0019 20.2135 19.4363 19.7455 19.7621 19.4275C20.0879 19.1156 20.6551 18.6356 21.0171 18.3656C21.3791 18.0956 21.91 17.7476 22.1936 17.5916C22.4771 17.4296 22.9477 17.1896 23.2494 17.0576C23.545 16.9196 24.0518 16.7216 24.3656 16.6196C24.6793 16.5116 25.1559 16.3736 25.4214 16.3136C25.6869 16.2536 26.1756 16.1636 26.5074 16.1096C26.8392 16.0616 27.5874 16.0076 28.1666 15.9836C28.8061 15.9596 29.4456 15.8996 29.7956 15.8276C30.1093 15.7616 30.5437 15.6536 30.7609 15.5816C30.9781 15.5156 31.3703 15.3536 31.6357 15.2336C31.9012 15.1136 32.2813 14.9097 32.4804 14.7837C32.6795 14.6577 33.0174 14.4117 33.2346 14.2437C33.4518 14.0697 33.8439 13.7037 34.1094 13.4277C34.3748 13.1457 34.7248 12.7197 34.8937 12.4737C35.0566 12.2277 35.304 11.7957 35.4427 11.5137C35.5875 11.2317 35.7685 10.7877 35.859 10.5238C35.9435 10.2598 36.0642 9.76777 36.1305 9.42578C36.215 9.00579 36.2512 8.5618 36.2512 8.01581C36.2512 7.57782 36.209 6.99584 36.1607 6.71384C36.1124 6.43185 36.022 6.04186 35.9677 5.84386C35.9134 5.64587 35.7685 5.23788 35.6479 4.94389C35.5272 4.64389 35.2979 4.1879 35.1411 3.92391C34.9782 3.65992 34.7308 3.29392 34.592 3.11393C34.4472 2.93393 34.1456 2.59794 33.9224 2.36995C33.6931 2.14195 33.3009 1.79996 33.0536 1.61996C32.8062 1.43397 32.3959 1.16997 32.1486 1.03198C31.9012 0.893979 31.5271 0.713983 31.316 0.629985C31.1108 0.545987 30.7187 0.407991 30.4472 0.329992C30.1696 0.251994 29.6206 0.143997 29.2224 0.0899979Z" fill="#1E1E1E"/>
<path d="M29.6206 20.2075C29.4034 20.1715 28.8845 20.1355 28.4743 20.1235C28.058 20.1115 27.6115 20.1115 27.4788 20.1235C27.346 20.1415 27.0021 20.1955 26.7246 20.2435C26.441 20.2975 25.9765 20.4115 25.6989 20.5075C25.4154 20.5975 24.981 20.7715 24.7336 20.8975C24.4802 21.0175 24.0639 21.2635 23.7984 21.4375C23.533 21.6055 23.2434 21.8095 23.1649 21.8815C23.0805 21.9535 22.7969 22.2175 22.5435 22.4755C22.2841 22.7275 21.9281 23.1415 21.7471 23.3875C21.5721 23.6335 21.2886 24.0954 21.1257 24.4074C20.9567 24.7194 20.7456 25.1934 20.6611 25.4574C20.5706 25.7214 20.4379 26.1954 20.3715 26.5074C20.275 26.9514 20.2448 27.2934 20.2448 28.0673C20.2448 28.7933 20.275 29.1953 20.3534 29.5673C20.4077 29.8493 20.5404 30.3173 20.643 30.6173C20.7395 30.9113 20.9326 31.3733 21.0653 31.6373C21.1981 31.9013 21.4334 32.3033 21.5842 32.5312C21.7411 32.7652 22.1212 33.2212 22.4409 33.5452C22.7547 33.8752 23.2132 34.2952 23.4666 34.4812C23.714 34.6672 24.2147 34.9732 24.5828 35.1532C24.9448 35.3392 25.4636 35.5612 25.7291 35.6452C25.9946 35.7292 26.429 35.8492 26.6944 35.9092C27.0625 35.9872 27.4245 36.0112 28.2631 36.0112C29.156 36.0112 29.4456 35.9872 29.9042 35.8792C30.2119 35.8072 30.6342 35.6872 30.8393 35.6212C31.0445 35.5492 31.4185 35.3992 31.6719 35.2852C31.9193 35.1712 32.3899 34.9012 32.7217 34.6792C33.0536 34.4572 33.5604 34.0492 33.8439 33.7672C34.1335 33.4852 34.5257 33.0412 34.7188 32.7772C34.9118 32.5132 35.1893 32.0813 35.3281 31.8173C35.4669 31.5533 35.678 31.0793 35.7927 30.7673C35.9073 30.4553 36.0642 29.8733 36.1366 29.4773C36.2452 28.8713 36.2633 28.6133 36.2331 27.8274C36.221 27.3174 36.1607 26.7054 36.1124 26.4774C36.0581 26.2434 35.9435 25.8414 35.859 25.5774C35.7746 25.3134 35.5996 24.8814 35.4729 24.6174C35.3462 24.3534 35.0747 23.8914 34.8756 23.5975C34.6765 23.2975 34.3568 22.8835 34.1637 22.6735C33.9706 22.4635 33.6086 22.1275 33.3613 21.9295C33.1079 21.7315 32.7579 21.4735 32.5769 21.3535C32.3899 21.2395 32.0098 21.0295 31.7323 20.8915C31.4487 20.7535 30.9479 20.5555 30.6161 20.4535C30.2843 20.3515 29.8318 20.2435 29.6206 20.2075Z" fill="#1E1E1E"/>
<defs>
<clipPath id="clip0_1796_14">
<rect width="210" height="15" fill="white" transform="translate(46 44)"/>
</clipPath>
</defs>
</svg>
